<?xml version="1.0" standalone="no"?>
<!DOCTYPE svg PUBLIC "-//W3C//DTD SVG 20010904//EN"
 "http://www.w3.org/TR/2001/REC-SVG-20010904/DTD/svg10.dtd">
<svg version="1.0" xmlns="http://www.w3.org/2000/svg"
 width="2048.000000pt" height="2048.000000pt" viewBox="0 0 2048.000000 2048.000000"
 preserveAspectRatio="xMidYMid meet">
<metadata>
Created by potrace 1.11, written by Peter Selinger 2001-2013
</metadata>
<g transform="translate(0.000000,2048.000000) scale(0.100000,-0.100000)"
fill="#000000" stroke="none">
<path d="M9925 20159 c-2041 -63 -4007 -754 -5650 -1988 -381 -286 -696 -560
-1050 -915 -492 -494 -874 -959 -1242 -1511 -1253 -1885 -1817 -4089 -1628
-6365 67 -803 246 -1640 512 -2400 416 -1185 1026 -2247 1836 -3195 592 -691
1281 -1303 2032 -1802 1037 -690 2153 -1165 3375 -1437 1303 -289 2727 -305
4045 -45 899 177 1726 462 2554 879 1194 601 2205 1399 3107 2450 314 366 657
844 921 1285 748 1246 1198 2573 1363 4015 69 613 78 1337 24 1970 -167 1961
-924 3840 -2165 5375 -1724 2133 -4214 3444 -6952 3660 -171 14 -747 37 -817
33 -14 -1 -133 -5 -265 -9z m-244 -2254 c46 -8 98 -26 129 -45 28 -17 61 -30
73 -29 52 5 78 -3 121 -36 36 -27 56 -35 89 -35 46 0 211 -25 226 -34 5 -4
124 -13 263 -21 273 -16 354 -25 463 -50 39 -9 88 -21 110 -25 22 -5 65 -18
96 -28 31 -11 83 -25 115 -32 33 -7 64 -16 69 -20 11 -9 153 -65 260 -103 128
-45 651 -310 778 -394 37 -25 137 -111 221 -191 101 -97 183 -166 242 -204
116 -73 226 -169 300 -260 57 -70 77 -94 126 -149 25 -29 111 -99 168 -139
163 -111 274 -260 385 -515 21 -49 46 -101 56 -115 9 -14 20 -35 23 -48 4 -12
26 -62 48 -110 198 -427 330 -850 358 -1152 19 -205 31 -323 45 -455 22 -197
-1 -1059 -34 -1295 -6 -36 -14 -128 -20 -205 -15 -186 -28 -284 -51 -375 -24
-92 -59 -249 -70 -310 -21 -120 -59 -213 -130 -327 -41 -66 -82 -160 -99 -233
-20 -79 -53 -184 -76 -235 -12 -27 -37 -97 -54 -155 -17 -58 -45 -148 -61
-200 -17 -53 -30 -99 -30 -104 0 -19 -84 -203 -110 -240 -15 -23 -39 -64 -53
-91 -14 -28 -43 -75 -65 -105 -22 -30 -54 -73 -70 -95 -59 -81 -191 -323 -243
-445 -29 -69 -65 -143 -80 -165 -14 -22 -33 -53 -42 -70 -19 -38 -71 -91 -180
-185 -102 -87 -151 -153 -213 -287 -79 -170 -208 -345 -339 -458 -95 -81 -182
-186 -299 -360 -70 -104 -236 -274 -328 -335 -34 -23 -69 -51 -77 -63 -26 -36
-193 -220 -286 -313 -49 -49 -134 -123 -189 -163 -113 -83 -158 -128 -262
-258 -88 -109 -164 -177 -294 -263 -56 -37 -124 -94 -165 -138 -183 -196 -317
-312 -461 -398 -56 -34 -112 -93 -166 -176 -27 -42 -77 -103 -112 -135 -62
-58 -213 -168 -291 -212 -44 -25 -71 -57 -144 -171 -26 -41 -62 -88 -81 -105
-158 -142 -166 -148 -286 -208 -96 -48 -184 -129 -224 -205 -77 -148 -164
-217 -404 -318 -77 -32 -116 -71 -199 -194 -101 -152 -102 -152 -295 -246
l-177 -86 -97 -100 c-54 -55 -98 -104 -98 -109 0 -19 -149 -117 -225 -148
-129 -54 -152 -68 -243 -153 -48 -44 -110 -98 -139 -119 -47 -35 -168 -97
-220 -113 -29 -9 -77 -71 -103 -132 -26 -59 -90 -121 -173 -168 -34 -19 -71
-44 -81 -55 -10 -11 -44 -30 -74 -41 -30 -12 -68 -32 -84 -45 -86 -73 -228
-47 -289 52 -20 31 -24 51 -24 113 0 66 4 80 28 116 33 49 160 147 235 181 56
26 109 86 152 173 68 135 176 235 342 317 55 27 76 44 114 95 25 35 54 79 64
98 33 64 140 169 239 235 99 64 130 97 166 170 67 137 140 238 226 310 25 22
126 85 134 85 3 0 23 11 45 25 30 19 49 44 76 98 86 170 204 296 345 368 46
23 71 46 122 111 93 118 199 217 292 270 44 25 100 57 125 71 25 14 59 40 75
56 110 113 212 193 308 242 58 29 137 81 182 118 122 101 148 119 248 165 96
45 117 64 221 196 71 90 171 171 275 225 100 52 113 65 186 187 66 110 186
229 289 288 66 38 82 52 100 90 85 179 212 331 355 426 71 47 76 53 129 154
79 152 100 179 268 350 154 157 213 224 274 315 18 28 46 64 61 82 15 17 48
63 73 102 42 65 77 107 180 215 44 46 92 123 111 177 8 20 27 65 43 100 17 35
46 98 65 140 19 42 69 127 112 190 42 62 97 154 122 203 25 50 53 108 64 128
25 49 58 139 74 202 53 206 68 255 91 295 14 25 45 111 69 191 51 174 81 250
132 333 21 34 44 80 51 102 27 84 73 335 92 499 11 94 25 187 30 207 6 20 26
146 45 280 20 133 47 283 61 333 14 50 31 130 39 179 7 48 27 149 43 225 16
75 37 189 47 252 9 63 32 162 51 220 57 173 69 337 34 469 -11 41 -27 131 -36
200 -12 96 -25 146 -52 211 -29 72 -91 290 -122 436 -5 23 -18 68 -28 100 -11
33 -27 86 -36 119 -34 121 -78 261 -97 310 -10 28 -19 57 -19 64 0 41 -79 167
-179 286 -98 115 -120 150 -198 302 l-88 172 -93 62 c-95 64 -205 167 -230
215 -22 43 -100 144 -124 164 -13 9 -52 29 -88 43 -172 68 -241 113 -373 240
-21 20 -44 37 -52 37 -7 0 -36 16 -64 35 -28 19 -53 35 -55 35 -18 0 -164 101
-227 157 -49 44 -125 95 -210 142 -74 41 -174 103 -222 139 -74 54 -103 69
-185 92 -53 16 -131 42 -174 59 -42 17 -91 31 -110 31 -18 1 -51 7 -73 15 -22
8 -57 15 -78 15 -21 0 -70 7 -110 15 -40 9 -82 18 -95 21 -13 2 -42 22 -65 42
-36 32 -53 40 -115 50 -40 7 -99 25 -130 41 -53 27 -68 29 -211 36 -85 3 -177
11 -205 17 -60 12 -447 10 -503 -3 -21 -5 -52 -9 -69 -9 -18 0 -57 -13 -87
-29 -73 -39 -133 -57 -256 -81 -137 -26 -262 -88 -341 -169 -30 -32 -77 -69
-105 -83 -27 -14 -93 -68 -147 -120 -78 -78 -102 -109 -131 -169 -19 -41 -52
-94 -74 -119 -56 -63 -92 -137 -124 -260 -15 -58 -39 -136 -52 -175 -13 -38
-29 -92 -35 -120 -18 -83 -45 -306 -44 -365 2 -122 24 -279 52 -365 15 -49 40
-148 55 -220 14 -71 28 -141 31 -154 3 -13 38 -58 78 -100 40 -42 81 -93 91
-112 10 -18 27 -40 38 -48 11 -8 45 -38 76 -68 32 -31 90 -71 136 -95 44 -22
98 -55 121 -74 23 -18 72 -45 110 -60 38 -14 89 -35 114 -45 25 -10 61 -21 80
-24 19 -4 49 -15 65 -24 17 -10 51 -21 75 -25 24 -4 58 -15 75 -25 33 -20 143
-41 232 -45 75 -4 246 -24 302 -37 64 -14 171 14 236 62 28 21 79 47 114 59
35 11 89 38 120 59 31 21 68 45 82 54 15 9 41 41 58 71 17 31 35 56 39 56 28
0 101 97 127 170 40 110 47 418 15 624 -9 60 -15 75 -41 95 -33 25 -94 106
-122 161 -25 48 -55 80 -107 117 -25 17 -63 47 -85 67 -25 24 -59 42 -99 53
-33 9 -74 30 -93 46 -30 26 -45 30 -158 45 l-125 15 -72 -29 c-54 -21 -87 -28
-127 -27 -31 1 -60 -2 -67 -8 -7 -5 -40 -23 -74 -40 -49 -23 -64 -37 -76 -66
-9 -20 -21 -42 -28 -49 -22 -21 -39 -128 -33 -201 8 -100 19 -167 27 -178 5
-5 11 -27 15 -47 13 -71 140 -150 266 -167 111 -15 243 -4 283 23 111 76 141
117 130 175 -9 42 2 78 27 91 32 18 62 -9 78 -68 28 -111 -19 -204 -149 -292
-73 -50 -107 -59 -225 -61 -152 -4 -241 9 -300 41 -27 15 -66 32 -86 39 -62
20 -114 73 -143 146 -58 144 -69 365 -25 497 10 32 19 65 19 75 0 10 9 37 20
61 16 35 29 47 72 66 29 13 65 26 80 30 14 3 54 33 87 65 37 36 73 62 92 66
18 4 50 16 73 26 87 40 418 18 522 -35 29 -14 64 -26 78 -26 38 0 105 -34 156
-81 25 -22 68 -55 95 -73 69 -45 129 -114 166 -189 23 -46 44 -72 75 -93 54
-36 80 -82 98 -170 45 -223 31 -727 -24 -834 -11 -22 -20 -44 -20 -50 0 -5
-33 -54 -73 -108 -40 -53 -93 -125 -116 -159 -28 -40 -62 -74 -95 -95 -28 -17
-77 -49 -110 -70 -32 -21 -82 -45 -110 -53 -28 -8 -62 -25 -76 -38 -50 -46
-89 -67 -141 -78 -30 -6 -75 -17 -101 -25 -26 -9 -78 -17 -115 -18 -37 -2
-128 -8 -201 -15 -95 -9 -142 -9 -165 -2 -18 6 -75 12 -128 14 -64 3 -103 9
-120 20 -13 8 -44 18 -69 22 -86 13 -155 35 -201 64 -25 15 -64 31 -88 35 -23
3 -53 13 -65 21 -13 8 -62 28 -110 45 -48 16 -108 44 -134 63 -26 19 -73 47
-105 62 -32 15 -77 41 -100 59 -23 17 -69 49 -103 69 -74 46 -126 99 -192 197
-28 41 -71 94 -95 117 -76 73 -92 113 -162 408 -15 61 -44 155 -64 210 -21 55
-43 136 -50 180 -15 103 -34 328 -32 380 1 61 31 297 41 325 5 14 18 59 30
100 12 41 28 91 36 110 8 19 25 78 38 130 38 153 100 279 185 375 15 17 38 55
51 85 34 77 84 145 139 186 25 20 74 66 108 103 34 38 86 83 115 102 29 18 83
61 120 96 45 43 90 74 140 97 40 18 93 47 118 64 71 47 289 150 355 166 33 8
114 29 180 45 66 16 133 35 150 41 82 31 294 57 570 70 121 6 263 15 315 20
52 6 124 12 160 13 36 2 83 4 105 5 22 1 74 -5 116 -13z m5547 -956 c89 -42
119 -66 150 -119 25 -42 27 -53 27 -165 -1 -107 -4 -129 -30 -199 -40 -111
-58 -128 -132 -134 -75 -5 -105 9 -101 46 3 22 9 28 46 35 33 6 48 16 63 40
29 46 23 162 -11 232 -22 43 -32 52 -75 69 -87 33 -114 32 -183 -7 -60 -32
-65 -38 -112 -131 -45 -87 -50 -102 -50 -162 0 -61 4 -75 50 -159 28 -51 56
-95 63 -98 6 -2 39 -25 72 -50 95 -72 177 -75 257 -11 36 28 51 34 93 34 71 0
115 -41 115 -106 0 -47 -47 -132 -92 -164 -81 -59 -203 -80 -322 -55 -116 24
-205 76 -315 185 -82 81 -160 241 -174 355 -13 103 1 164 73 310 59 119 121
188 216 241 112 63 254 68 372 13z m706 -2004 c81 -39 160 -164 160 -255 0
-74 -27 -130 -105 -218 -66 -75 -114 -100 -164 -88 -43 11 -44 64 -1 84 12 5
31 27 41 49 10 21 31 54 46 73 46 58 46 79 -1 133 l-42 47 -83 0 c-128 0 -193
-25 -279 -108 -85 -81 -146 -164 -157 -214 -5 -20 -4 -81 1 -137 9 -91 14
-110 52 -183 38 -71 49 -84 93 -108 60 -31 140 -55 175 -52 68 7 248 94 278
134 8 10 32 39 54 65 22 26 47 63 55 82 33 76 39 85 68 103 63 38 141 13 176
-58 16 -34 19 -54 14 -81 -10 -53 -48 -124 -97 -182 -24 -27 -60 -70 -81 -96
-40 -47 -151 -126 -215 -151 -20 -9 -51 -21 -67 -29 -56 -26 -198 -40 -270
-28 -84 14 -243 91 -302 146 -55 51 -137 212 -154 302 -19 102 -17 312 4 370
25 71 88 156 192 259 168 165 174 168 407 162 129 -3 175 -8 202 -21z"/>
<path d="M20320 17275 c0 -9 5 -15 11 -13 6 2 11 8 11 13 0 5 -5 11 -11 13 -6
2 -11 -4 -11 -13z"/>
</g>
</svg>
